<?xml version="1.0" standalone="no"?>
<!DOCTYPE svg PUBLIC "-//W3C//DTD SVG 20010904//EN"
 "http://www.w3.org/TR/2001/REC-SVG-20010904/DTD/svg10.dtd">
<svg version="1.0" xmlns="http://www.w3.org/2000/svg"
 width="700.000000pt" height="700.000000pt" viewBox="0 0 700.000000 700.000000"
 preserveAspectRatio="xMidYMid meet">
<metadata>
Created by potrace 1.11, written by Peter Selinger 2001-2013
</metadata>
<g transform="translate(0.000000,700.000000) scale(0.100000,-0.100000)"
fill="#000000" stroke="none">
<path d="M489 6984 c-62 -19 -131 -81 -160 -146 l-24 -53 0 -3285 0 -3285 24
-53 c30 -67 98 -127 164 -147 44 -13 315 -15 2142 -15 1827 0 2098 2 2142 15
63 19 134 80 165 143 l23 47 0 3295 0 3295 -23 47 c-13 25 -43 64 -67 87 -83
77 99 71 -2244 70 -1777 0 -2103 -3 -2142 -15z m396 -3484 l0 -3295 -170 3
c-137 3 -173 7 -187 19 -17 15 -18 184 -18 3273 0 3089 1 3258 18 3272 28 25
41 27 202 25 l155 -2 0 -3295z m3857 3273 c17 -16 18 -130 18 -3271 0 -3015
-1 -3257 -17 -3274 -15 -17 -85 -18 -1830 -18 l-1813 0 0 3290 0 3290 1812 0
c1671 0 1813 -1 1830 -17z"/>
<path d="M1558 5928 c-49 -13 -116 -72 -139 -122 -17 -38 -19 -76 -19 -517 l0
-475 28 -55 c18 -35 42 -64 70 -84 l44 -30 1361 -3 c962 -2 1373 0 1400 8 48
14 102 61 130 114 22 41 22 46 22 521 l0 480 -24 48 c-25 52 -71 92 -128 113
-30 10 -155 13 -590 14 -321 0 -562 -4 -576 -9 -59 -23 -86 -96 -57 -151 24
-44 29 -45 610 -50 l555 -5 3 -437 2 -438 -1320 0 -1320 0 0 440 0 440 550 0
c589 0 593 0 620 49 27 51 4 124 -47 150 -28 14 -1121 14 -1175 -1z"/>
<path d="M1890 5573 c-8 -3 -27 -17 -42 -31 -40 -37 -40 -102 1 -143 l29 -29
1052 0 1052 0 29 29 c23 24 29 38 29 73 0 36 -6 50 -31 74 l-30 29 -1037 2
c-570 1 -1044 -1 -1052 -4z"/>
<path d="M1876 5195 c-42 -22 -55 -44 -56 -93 0 -35 6 -49 29 -73 l29 -29
1052 0 1052 0 29 29 c23 24 29 38 29 73 0 36 -6 50 -31 74 l-30 29 -1037 3
c-913 2 -1040 0 -1066 -13z"/>
<path d="M5527 6986 c-60 -22 -107 -65 -133 -120 -21 -46 -24 -65 -24 -189 l0
-139 -50 -45 c-73 -65 -93 -109 -98 -217 -4 -87 -6 -91 -38 -122 -28 -26 -34
-39 -34 -74 0 -36 6 -48 35 -76 l35 -33 0 -704 c0 -766 -1 -749 56 -824 14
-19 41 -44 60 -56 l34 -22 0 -1831 c0 -1328 3 -1840 11 -1865 6 -19 24 -51 40
-71 l29 -37 0 -175 c0 -206 10 -264 53 -313 56 -64 90 -73 276 -73 188 0 230
9 281 60 52 52 60 91 60 304 0 182 1 188 24 219 13 18 32 48 42 67 18 33 19
76 19 973 l0 939 -33 29 c-54 48 -129 35 -161 -28 -8 -15 -11 -281 -11 -931 0
-820 -2 -910 -16 -916 -31 -12 -389 -7 -402 6 -9 9 -12 425 -12 1810 l0 1798
215 0 215 0 0 -676 c0 -478 3 -682 11 -697 32 -63 107 -76 161 -28 l33 29 5
704 5 703 47 43 c89 82 82 22 88 842 l5 725 68 3 67 3 0 -926 c0 -806 2 -930
15 -955 19 -37 43 -50 93 -50 47 0 86 33 96 81 11 54 7 1931 -4 1970 -19 67
-35 73 -194 79 l-141 5 -5 95 c-4 80 -9 102 -32 141 -26 44 -80 99 -98 99 -4
0 -10 69 -12 153 -5 166 -15 203 -75 258 -65 61 -77 64 -333 66 -179 2 -244 0
-273 -11z m471 -313 l3 -113 -216 0 -215 0 0 99 c0 55 3 107 6 115 6 14 31 16
213 14 l206 -3 3 -112z m136 -345 c11 -15 16 -45 16 -85 l0 -63 -365 0 -365 0
0 56 c0 54 12 92 34 106 6 4 158 8 338 8 327 0 327 0 342 -22z m16 -1048 c0
-687 0 -700 -20 -720 -19 -19 -33 -20 -339 -20 -299 0 -320 1 -342 19 l-24 19
-3 688 c-1 379 0 694 2 701 4 10 83 13 366 13 l360 0 0 -700z m-232 -4922 l3
-148 -131 0 -130 0 0 150 0 151 128 -3 127 -3 3 -147z"/>
</g>
</svg>
