<svg id="Capa_1" enable-background="new 0 0 512 512" height="512" viewBox="0 0 512 512" width="512" xmlns="http://www.w3.org/2000/svg"><g><g><path d="m436.748 464.551h-27.003c-1.193 0-2.33-.225-3.386-.619v33.558c0 3.901 3.163 7.065 7.065 7.065h19.644c3.902 0 7.065-3.163 7.065-7.065v-33.558c-1.055.394-2.192.619-3.385.619z" fill="#ffc365"/><g><path d="m423.246 497.49v-32.939h-13.501c-1.193 0-2.33-.225-3.386-.619v33.558c0 3.901 3.163 7.065 7.065 7.065h16.887c-3.901 0-7.065-3.163-7.065-7.065z" fill="#ffa90f"/></g><path d="m343.559 7.555h-273.154v497h273.153c6.771 0 12.31-5.54 12.31-12.31v-472.38c.001-6.77-5.539-12.31-12.309-12.31z" fill="#60b9fe"/><path d="m70.405 7.555h39.58v497h-39.58z" fill="#1ca8ff"/><path d="m72.405 7.555h-30.43c-6.771 0-12.31 5.539-12.31 12.31v472.379c0 6.771 5.54 12.31 12.31 12.31h30.431v-496.999z" fill="#dbedff"/><path d="m51.035 492.245v-472.38c0-6.771 5.54-12.31 12.31-12.31h-21.37c-6.771 0-12.31 5.54-12.31 12.31v472.379c0 6.771 5.54 12.31 12.31 12.31h21.37c-6.77.001-12.31-5.539-12.31-12.309z" fill="#b5dcff"/><path d="m309.729 85.324h-191.184c-4.727 0-8.559 3.832-8.559 8.559v62.897c0 4.728 3.832 8.559 8.559 8.559h191.184c4.727 0 8.559-3.832 8.559-8.559v-62.896c.001-4.728-3.832-8.56-8.559-8.56z" fill="#1ca8ff"/><path d="m147.566 156.781v-62.897c0-4.728 3.832-8.56 8.559-8.56h-37.58c-4.727 0-8.559 3.832-8.559 8.56v62.897c0 4.728 3.832 8.559 8.559 8.559h37.58c-4.727.001-8.559-3.831-8.559-8.559z" fill="#0094fd"/><path d="m444.001 184.46h-41.509c-.841 0-1.661-.087-2.459-.236v273.616c0 5.363 4.348 9.712 9.712 9.712h27.003c5.364 0 9.712-4.348 9.712-9.712v-273.616c-.798.148-1.618.236-2.459.236z" fill="#ffa90f"/><g><path d="m423.246 457.839v-273.379h-20.754c-.841 0-1.661-.087-2.459-.236v273.616c0 5.363 4.348 9.712 9.712 9.712h23.213c-5.363-.001-9.712-4.349-9.712-9.713z" fill="#ff9b00"/></g><path d="m402.492 42.834h41.509c.841 0 1.661.087 2.459.236v-25.803c0-5.363-4.348-9.712-9.712-9.712h-27.003c-5.364 0-9.712 4.348-9.712 9.712v25.803c.798-.149 1.618-.236 2.459-.236z" fill="#ffa90f"/><g><path d="m423.246 17.267c0-5.363 4.348-9.712 9.712-9.712h-23.213c-5.364 0-9.712 4.348-9.712 9.712v25.803c.798-.148 1.618-.236 2.459-.236h20.754z" fill="#ff9b00"/></g><path d="m445.022 187.459h-43.552c-6.812 0-12.333-5.522-12.333-12.333v-122.959c0-6.812 5.522-12.333 12.333-12.333h43.552c6.812 0 12.333 5.522 12.333 12.333v122.959c.001 6.812-5.521 12.333-12.333 12.333z" fill="#ffc365"/><path d="m421.611 175.126v-122.959c0-6.812 5.522-12.333 12.333-12.333h-32.473c-6.812 0-12.333 5.522-12.333 12.333v122.959c0 6.811 5.522 12.333 12.333 12.333h32.473c-6.812 0-12.333-5.521-12.333-12.333z" fill="#ffa90f"/></g><g><path d="m363.406 492.19v-472.38c0-10.923-8.886-19.81-19.81-19.81h-271.154-30.43c-10.923 0-19.81 8.887-19.81 19.81v472.379c0 10.922 8.885 19.81 19.81 19.81h301.584c10.924.001 19.81-8.886 19.81-19.809zm-298.464 4.81h-22.93c-2.607 0-4.81-2.203-4.81-4.811v-472.379c0-2.607 2.202-4.81 4.81-4.81h22.931v482zm15-482h263.653c2.607 0 4.811 2.203 4.811 4.81v472.38c0 2.607-2.203 4.81-4.811 4.81h-263.653z"/><path d="m288.213 104.271h-147.723c-4.143 0-7.5 3.358-7.5 7.5s3.357 7.5 7.5 7.5h147.723c4.143 0 7.5-3.358 7.5-7.5s-3.358-7.5-7.5-7.5z"/><path d="m288.213 131.285h-147.723c-4.143 0-7.5 3.358-7.5 7.5s3.357 7.5 7.5 7.5h147.723c4.143 0 7.5-3.358 7.5-7.5s-3.358-7.5-7.5-7.5z"/><path d="m446.497 300.135c4.143 0 7.5-3.358 7.5-7.5v-99.883c6.453-3.276 10.896-9.962 10.896-17.681v-100.18h9.905v133.809c0 4.142 3.357 7.5 7.5 7.5s7.5-3.358 7.5-7.5v-141.309c0-4.142-3.357-7.5-7.5-7.5h-17.405v-7.779c0-7.719-4.442-14.405-10.896-17.681v-17.22c0-9.49-7.722-17.211-17.212-17.211h-27.003c-9.49 0-17.212 7.721-17.212 17.211v17.219c-6.453 3.276-10.896 9.962-10.896 17.681v8.079c-3.126.904-5.414 3.782-5.414 7.2s2.288 6.296 5.414 7.2v100.48c0 7.719 4.442 14.405 10.896 17.681v265.032c0 5.364 2.468 10.16 6.326 13.319v26.332c0 8.031 6.534 14.565 14.565 14.565h19.644c8.031 0 14.565-6.534 14.565-14.565v-26.332c3.858-3.159 6.326-7.955 6.326-13.319v-130.148c0-4.142-3.357-7.5-7.5-7.5s-7.5 3.358-7.5 7.5v130.149c0 1.263-1.043 2.212-2.212 2.212h-27.003c-1.211 0-2.212-.985-2.212-2.212v-262.88h31.427v97.73c.001 4.143 3.358 7.501 7.501 7.501zm-32.601 174.861h18.774v22.004h-18.774zm-6.326-457.785c0-1.219.992-2.211 2.212-2.211h27.003c1.22 0 2.212.992 2.212 2.211v15.067h-31.427zm-10.895 34.901c0-2.182 1.463-4.01 3.453-4.608 1.045-.008 1.733-.225 2.402-.225h41.509c.732 0 1.4.231 2.432.235 1.974.608 3.422 2.427 3.422 4.598v7.779h-53.218zm5.854 127.792c-.666 0-1.355-.216-2.398-.224-1.991-.597-3.456-2.426-3.456-4.609v-100.18h53.218v100.18c0 2.183-1.463 4.01-3.454 4.609-1.044.008-1.732.225-2.401.225h-41.509z"/><path d="m309.767 77.77h-77.915c-4.143 0-7.5 3.358-7.5 7.5s3.357 7.5 7.5 7.5h77.915c.584 0 1.059.475 1.059 1.06v62.897c0 .584-.475 1.059-1.059 1.059h-191.185c-.584 0-1.06-.475-1.06-1.059v-62.898c0-.584.476-1.06 1.06-1.06h78.27c4.143 0 7.5-3.358 7.5-7.5s-3.357-7.5-7.5-7.5h-78.27c-8.855 0-16.06 7.204-16.06 16.06v62.897c0 8.855 7.204 16.059 16.06 16.059h191.185c8.854 0 16.059-7.204 16.059-16.059v-62.897c-.001-8.855-7.205-16.059-16.059-16.059z"/></g></g></svg>